<svg width="224" height="224" viewBox="0 0 224 224" fill="none" xmlns="http://www.w3.org/2000/svg">
<path d="M112 223C173.304 223 223 173.304 223 112C223 50.6964 173.304 1 112 1C50.6964 1 1 50.6964 1 112C1 173.304 50.6964 223 112 223Z" fill="#EEEEEF" stroke="#E3E3E4" stroke-width="2"/>
<path d="M200.273 177.555C190.014 163.821 176.693 152.668 161.368 144.984C146.043 137.299 129.137 133.295 111.994 133.29C94.8506 133.285 77.9423 137.278 62.6127 144.953C47.2831 152.627 33.9549 163.772 23.6873 177.5C33.9027 191.298 47.2092 202.511 62.5397 210.239C77.8702 217.966 94.7981 221.994 111.966 222C129.134 222.005 146.065 217.988 161.4 210.27C176.736 202.551 190.049 191.347 200.273 177.555Z" fill="#8E9193"/>
<path d="M112 119.097C135.516 119.097 154.58 100.033 154.58 76.5162C154.58 52.9996 135.516 33.9355 112 33.9355C88.4832 33.9355 69.4192 52.9996 69.4192 76.5162C69.4192 100.033 88.4832 119.097 112 119.097Z" fill="#8E9193"/>
</svg>
